<svg xmlns="http://www.w3.org/2000/svg" width="512" height="341" viewBox="0 0 3 2" aria-label="Flag of India">
  <rect width="3" height="2" fill="#fff"/>
  <rect width="3" height="0.6667" y="0" fill="#ff9933"/>
  <rect width="3" height="0.6667" y="1.3333" fill="#138808"/>
  <circle cx="1.5" cy="1" r="0.2" fill="none" stroke="#000080" stroke-width="0.04"/>
  <circle cx="1.5" cy="1" r="0.02" fill="#000080"/>
  <g stroke="#000080" stroke-width="0.015" stroke-linecap="round" transform="translate(1.5 1)">
    <line x1="0" y1="-0.18" x2="0" y2="-0.04"/>
    <line x1="0" y1="-0.18" x2="0" y2="-0.04" transform="rotate(15)"/>
    <line x1="0" y1="-0.18" x2="0" y2="-0.04" transform="rotate(30)"/>
    <line x1="0" y1="-0.18" x2="0" y2="-0.04" transform="rotate(45)"/>
    <line x1="0" y1="-0.18" x2="0" y2="-0.04" transform="rotate(60)"/>
    <line x1="0" y1="-0.18" x2="0" y2="-0.04" transform="rotate(75)"/>
    <line x1="0" y1="-0.18" x2="0" y2="-0.04" transform="rotate(90)"/>
    <line x1="0" y1="-0.18" x2="0" y2="-0.04" transform="rotate(105)"/>
    <line x1="0" y1="-0.18" x2="0" y2="-0.04" transform="rotate(120)"/>
    <line x1="0" y1="-0.18" x2="0" y2="-0.04" transform="rotate(135)"/>
    <line x1="0" y1="-0.18" x2="0" y2="-0.04" transform="rotate(150)"/>
    <line x1="0" y1="-0.18" x2="0" y2="-0.04" transform="rotate(165)"/>
    <line x1="0" y1="-0.18" x2="0" y2="-0.04" transform="rotate(180)"/>
    <line x1="0" y1="-0.18" x2="0" y2="-0.04" transform="rotate(195)"/>
    <line x1="0" y1="-0.18" x2="0" y2="-0.04" transform="rotate(210)"/>
    <line x1="0" y1="-0.18" x2="0" y2="-0.04" transform="rotate(225)"/>
    <line x1="0" y1="-0.18" x2="0" y2="-0.04" transform="rotate(240)"/>
    <line x1="0" y1="-0.18" x2="0" y2="-0.04" transform="rotate(255)"/>
    <line x1="0" y1="-0.18" x2="0" y2="-0.04" transform="rotate(270)"/>
    <line x1="0" y1="-0.18" x2="0" y2="-0.04" transform="rotate(285)"/>
    <line x1="0" y1="-0.18" x2="0" y2="-0.04" transform="rotate(300)"/>
    <line x1="0" y1="-0.18" x2="0" y2="-0.04" transform="rotate(315)"/>
    <line x1="0" y1="-0.18" x2="0" y2="-0.04" transform="rotate(330)"/>
    <line x1="0" y1="-0.18" x2="0" y2="-0.04" transform="rotate(345)"/>
  </g>
</svg>
