<svg xmlns="http://www.w3.org/2000/svg" width="512" height="341" viewBox="0 0 3 2" aria-label="Flag of Singapore">
  <rect width="3" height="2" fill="#fff"/>
  <rect width="3" height="1" y="0" fill="#ef3340"/>

  <!-- Crescent -->
  <circle cx="0.62" cy="0.5" r="0.25" fill="#fff"/>
  <circle cx="0.69" cy="0.5" r="0.2" fill="#ef3340"/>

  <!-- Five stars -->
  <g fill="#fff">
    <path d="M0.91 0.31l0.011 0.034h0.036l-0.029 0.021 0.011 0.035-0.029-0.021-0.029 0.021 0.011-0.035-0.029-0.021h0.036z"/>
    <path d="M1.03 0.39l0.011 0.034h0.036l-0.029 0.021 0.011 0.035-0.029-0.021-0.029 0.021 0.011-0.035-0.029-0.021h0.036z"/>
    <path d="M0.99 0.53l0.011 0.034h0.036l-0.029 0.021 0.011 0.035-0.029-0.021-0.029 0.021 0.011-0.035-0.029-0.021h0.036z"/>
    <path d="M0.83 0.53l0.011 0.034h0.036l-0.029 0.021 0.011 0.035-0.029-0.021-0.029 0.021 0.011-0.035-0.029-0.021h0.036z"/>
    <path d="M0.79 0.39l0.011 0.034h0.036l-0.029 0.021 0.011 0.035-0.029-0.021-0.029 0.021 0.011-0.035-0.029-0.021h0.036z"/>
  </g>
</svg>
