<svg xmlns="http://www.w3.org/2000/svg" width="512" height="341" viewBox="0 0 3 2" aria-label="Flag of Singapore">
  <rect width="3" height="1" y="0" fill="#ef3340"/>
  <rect width="3" height="1" y="1" fill="#fff"/>
  <circle cx="0.66" cy="0.5" r="0.27" fill="#fff"/>
  <circle cx="0.74" cy="0.5" r="0.22" fill="#ef3340"/>
  <g fill="#fff" transform="translate(0.93 0.36) scale(0.06)">
    <path d="M10 0l2.94 9.05H22.5l-7.72 5.61L17.72 24 10 18.39 2.28 24l2.94-9.34L-2.5 9.05h9.56z"/>
  </g>
  <g fill="#fff" transform="translate(1.08 0.24) scale(0.05)">
    <path d="M10 0l2.94 9.05H22.5l-7.72 5.61L17.72 24 10 18.39 2.28 24l2.94-9.34L-2.5 9.05h9.56z"/>
  </g>
  <g fill="#fff" transform="translate(1.19 0.37) scale(0.05)">
    <path d="M10 0l2.94 9.05H22.5l-7.72 5.61L17.72 24 10 18.39 2.28 24l2.94-9.34L-2.5 9.05h9.56z"/>
  </g>
  <g fill="#fff" transform="translate(1.09 0.52) scale(0.05)">
    <path d="M10 0l2.94 9.05H22.5l-7.72 5.61L17.72 24 10 18.39 2.28 24l2.94-9.34L-2.5 9.05h9.56z"/>
  </g>
  <g fill="#fff" transform="translate(0.93 0.62) scale(0.05)">
    <path d="M10 0l2.94 9.05H22.5l-7.72 5.61L17.72 24 10 18.39 2.28 24l2.94-9.34L-2.5 9.05h9.56z"/>
  </g>
</svg>
