<?xml version="1.0" encoding="UTF-8"?><svg id="Livello_2" xmlns="http://www.w3.org/2000/svg" viewBox="0 0 315.16 323.34"><defs><style>.cls-1{fill:#cbb8f4;}.cls-1,.cls-2,.cls-3{opacity:.7;}.cls-1,.cls-2,.cls-3,.cls-4,.cls-5,.cls-6,.cls-7,.cls-8,.cls-9,.cls-10,.cls-11,.cls-12,.cls-13,.cls-14,.cls-15{stroke-width:0px;}.cls-2,.cls-14{fill:#f26451;}.cls-3,.cls-12{fill:#ffc422;}.cls-4{fill:#f8b300;}.cls-5{fill:#3abcee;}.cls-6{fill:#092963;}.cls-7{fill:#e14739;}.cls-8{fill:#d03b31;}.cls-9{fill:#009bde;}.cls-10{fill:#fff;}.cls-11{fill:#f09f00;}.cls-13{fill:#f26351;}.cls-15{fill:#0085c5;}</style></defs><g id="Livello_1-2"><path class="cls-13" d="M6.32,297.24c2.68,0,4.63.4,5.86,1.19,1.22.79,1.83,2.02,1.83,3.68,0,.82-.15,1.53-.45,2.12-.3.59-.7,1.07-1.2,1.44-.5.37-1.05.61-1.66.74v.14c.64.13,1.25.36,1.83.68.58.33,1.06.8,1.42,1.42.36.62.55,1.44.55,2.46,0,1.19-.29,2.2-.88,3.05-.58.85-1.41,1.5-2.48,1.94-1.07.45-2.35.67-3.84.67H0v-19.54h6.32ZM6.54,305.06c1.2,0,2.03-.22,2.49-.66.46-.44.68-1.01.68-1.72,0-.75-.27-1.3-.81-1.66s-1.39-.53-2.56-.53h-2.16v4.57h2.35ZM4.19,308.21v5.25h2.65c1.24,0,2.1-.25,2.58-.75.48-.5.73-1.14.73-1.93,0-.49-.11-.93-.31-1.31-.21-.38-.57-.69-1.07-.92s-1.19-.34-2.07-.34h-2.52Z"/><path class="cls-13" d="M23.7,301.56c1.39,0,2.58.26,3.58.78s1.77,1.29,2.31,2.3c.54,1.01.81,2.25.81,3.71v2h-9.6c.04,1.13.38,2.02,1.04,2.67.66.65,1.6.97,2.82.97.93,0,1.78-.09,2.54-.27.77-.18,1.55-.46,2.35-.82v3.09c-.73.37-1.5.63-2.31.81s-1.82.26-3.02.26c-1.48,0-2.79-.27-3.93-.82s-2.04-1.39-2.7-2.53c-.66-1.14-.98-2.57-.98-4.28s.3-3.21.89-4.36,1.42-2.03,2.49-2.61c1.07-.58,2.3-.88,3.71-.88ZM23.81,304.49c-.82,0-1.49.26-2,.78s-.81,1.29-.9,2.31h5.64c0-.6-.1-1.13-.3-1.59-.2-.46-.51-.82-.92-1.09-.41-.27-.92-.41-1.52-.41Z"/><path class="cls-13" d="M43.81,300.17c0,.8-.02,1.51-.07,2.12-.04.61-.09,1.1-.12,1.46h.22c.33-.53.71-.95,1.15-1.26.44-.31.93-.54,1.46-.7.54-.15,1.11-.23,1.71-.23,1.08,0,2.01.19,2.82.57.8.38,1.43.97,1.87,1.76.45.79.67,1.84.67,3.13v9.74h-4.13v-8.7c0-1.08-.19-1.88-.57-2.42-.38-.54-.99-.81-1.81-.81s-1.44.19-1.9.57c-.46.38-.8.94-1,1.67-.2.73-.3,1.62-.3,2.68v7h-4.13v-20.8h4.13v4.19Z"/><path class="cls-13" d="M70.68,301.83v14.94h-3.17l-.52-1.92h-.25c-.31.51-.71.93-1.19,1.26-.48.33-1.01.57-1.59.71-.58.15-1.18.22-1.82.22-1.06,0-1.98-.19-2.78-.57-.79-.38-1.41-.98-1.86-1.78-.45-.8-.67-1.84-.67-3.12v-9.74h4.16v8.7c0,1.06.19,1.86.56,2.39s.97.81,1.79.81,1.49-.19,1.96-.56c.46-.37.79-.93.97-1.66s.27-1.62.27-2.68v-7h4.13Z"/><path class="cls-13" d="M91.69,301.56c1.71,0,3.01.43,3.89,1.29.88.86,1.31,2.25,1.31,4.19v9.74h-4.1v-8.7c0-1.15-.19-1.97-.58-2.48-.38-.5-.96-.75-1.72-.75-1.06,0-1.81.39-2.24,1.16-.44.78-.66,1.87-.66,3.3v7.47h-4.13v-8.7c0-.75-.08-1.36-.25-1.83-.16-.47-.41-.83-.74-1.05-.33-.23-.75-.34-1.26-.34-.75,0-1.34.19-1.77.57-.43.38-.73.94-.9,1.67-.17.73-.26,1.62-.26,2.68v7h-4.13v-14.94h3.17l.6,1.92h.14c.29-.46.65-.85,1.08-1.18.43-.33.93-.58,1.49-.75.57-.17,1.19-.26,1.89-.26,1.11,0,2.04.19,2.78.57.74.38,1.32.94,1.74,1.67h.14c.49-.75,1.13-1.31,1.92-1.68s1.65-.56,2.6-.56Z"/><path class="cls-13" d="M106.96,301.56c1.88,0,3.31.44,4.3,1.33.98.88,1.48,2.19,1.48,3.93v9.96h-2.87l-.79-2.02h-.11c-.42.53-.85.97-1.3,1.31-.45.35-.96.6-1.55.75s-1.29.23-2.13.23-1.66-.17-2.35-.51-1.24-.85-1.64-1.55-.6-1.57-.6-2.63c0-1.57.56-2.75,1.7-3.53,1.13-.78,2.82-1.22,5.06-1.31l2.49-.08v-.47c0-.89-.2-1.52-.6-1.87-.4-.36-.97-.53-1.7-.53-.67,0-1.37.11-2.08.33-.71.22-1.41.48-2.11.79l-1.2-2.82c.78-.4,1.68-.72,2.69-.96,1.01-.24,2.12-.36,3.33-.36ZM107.07,309.93c-1.3.04-2.2.25-2.71.63-.51.38-.77.92-.77,1.61,0,.64.18,1.11.53,1.41.36.3.83.45,1.44.45.86,0,1.58-.26,2.17-.77.59-.51.89-1.24.89-2.19v-1.23l-1.56.08Z"/><path class="cls-13" d="M124.66,301.56c1.64,0,2.94.43,3.89,1.3.95.87,1.42,2.27,1.42,4.2v9.71h-4.1v-8.7c0-1.08-.2-1.88-.59-2.42-.39-.54-1-.81-1.82-.81-1.24,0-2.08.42-2.53,1.27-.45.85-.67,2.07-.67,3.65v7h-4.13v-14.94h3.17l.58,2h.16c.33-.49.72-.91,1.19-1.25.46-.34.98-.59,1.56-.77.57-.17,1.2-.26,1.87-.26Z"/><path class="cls-13" d="M132.84,314.86c0-.84.23-1.43.7-1.78.47-.35,1.03-.52,1.68-.52s1.19.17,1.66.52c.46.35.7.94.7,1.78s-.23,1.38-.7,1.74c-.47.36-1.02.53-1.66.53s-1.22-.18-1.68-.53c-.46-.36-.7-.93-.7-1.74Z"/><path class="cls-13" d="M155.06,316.77h-4.19v-16.06h-5.28v-3.48h14.75v3.48h-5.28v16.06Z"/><path class="cls-13" d="M166.45,300.17c0,.8-.02,1.51-.07,2.12-.05.61-.09,1.1-.12,1.46h.22c.33-.53.71-.95,1.15-1.26.44-.31.93-.54,1.46-.7.54-.15,1.11-.23,1.71-.23,1.08,0,2.02.19,2.82.57.8.38,1.43.97,1.87,1.76s.67,1.84.67,3.13v9.74h-4.13v-8.7c0-1.08-.19-1.88-.57-2.42-.38-.54-.99-.81-1.81-.81s-1.44.19-1.9.57c-.46.38-.8.94-1,1.67-.2.73-.3,1.62-.3,2.68v7h-4.13v-20.8h4.13v4.19Z"/><path class="cls-13" d="M181.66,295.95c.6,0,1.13.14,1.57.42.45.28.67.82.67,1.6s-.22,1.27-.67,1.56c-.45.29-.97.44-1.57.44s-1.15-.15-1.59-.44c-.44-.29-.66-.81-.66-1.56s.22-1.32.66-1.6c.44-.28.97-.42,1.59-.42ZM183.71,301.83v14.94h-4.13v-14.94h4.13Z"/><path class="cls-13" d="M195.72,301.56c1.64,0,2.94.43,3.88,1.3s1.42,2.27,1.42,4.2v9.71h-4.1v-8.7c0-1.08-.2-1.88-.59-2.42-.39-.54-1-.81-1.82-.81-1.24,0-2.08.42-2.53,1.27-.45.85-.67,2.07-.67,3.65v7h-4.13v-14.94h3.17l.57,2h.16c.33-.49.73-.91,1.19-1.25.47-.34.99-.59,1.56-.77.58-.17,1.2-.26,1.88-.26Z"/><path class="cls-13" d="M208.64,305.28c0,.57-.02,1.13-.07,1.68-.05.56-.1,1.12-.15,1.68h.05c.18-.26.37-.51.56-.77s.39-.51.59-.77c.2-.26.41-.5.63-.74l4.19-4.54h4.6l-5.94,6.48,6.29,8.46h-4.71l-4.3-6.05-1.75,1.4v4.65h-4.08v-20.8h4.08v9.3Z"/><path class="cls-13" d="M232.31,317.05c-1.64,0-2.99-.65-4.04-1.96s-1.57-3.22-1.57-5.76.53-4.51,1.59-5.81c1.06-1.3,2.44-1.96,4.16-1.96.71,0,1.33.1,1.85.29.52.19.97.45,1.35.78.38.33.71.7.99,1.12h.14c-.05-.33-.11-.79-.15-1.38-.05-.59-.07-1.14-.07-1.63v-4.76h4.16v20.8h-3.17l-.82-1.94h-.16c-.26.42-.57.79-.96,1.12-.38.33-.84.59-1.38.79s-1.17.3-1.9.3ZM233.76,313.74c1.13,0,1.92-.32,2.38-.97.46-.65.68-1.64.68-2.97v-.44c0-1.44-.22-2.54-.66-3.31-.44-.77-1.25-1.15-2.44-1.15-.89,0-1.59.38-2.09,1.15-.5.77-.75,1.88-.75,3.34s.25,2.55.75,3.27c.5.72,1.21,1.08,2.12,1.08Z"/><path class="cls-13" d="M246.26,295.95c.6,0,1.13.14,1.57.42s.67.82.67,1.6-.22,1.27-.67,1.56c-.45.29-.97.44-1.57.44s-1.15-.15-1.59-.44c-.44-.29-.66-.81-.66-1.56s.22-1.32.66-1.6.97-.42,1.59-.42ZM248.31,301.83v14.94h-4.13v-14.94h4.13Z"/><path class="cls-13" d="M256.77,301.56c1.04,0,1.91.2,2.6.59s1.27.92,1.72,1.57h.11l.38-1.89h3.5v15.05c0,1.4-.27,2.59-.82,3.54-.55.96-1.37,1.68-2.48,2.18-1.1.49-2.5.74-4.2.74-1.15,0-2.18-.07-3.09-.21-.91-.14-1.77-.37-2.57-.7v-3.5c.82.36,1.66.65,2.53.85.87.2,1.86.3,3,.3s2.02-.26,2.61-.79c.59-.53.89-1.26.89-2.19v-.41c0-.22.01-.51.04-.88s.06-.68.1-.96h-.14c-.42.66-.97,1.19-1.66,1.59-.68.4-1.54.6-2.56.6-1.71,0-3.09-.67-4.12-2s-1.55-3.24-1.55-5.72.52-4.4,1.56-5.75c1.04-1.35,2.42-2.02,4.13-2.02ZM258.11,304.82c-.6,0-1.12.17-1.55.52-.43.35-.75.86-.96,1.53-.21.68-.31,1.51-.31,2.52,0,1.5.24,2.61.73,3.34.48.73,1.21,1.09,2.17,1.09.55,0,1.01-.08,1.4-.25.38-.16.69-.41.93-.73.24-.32.41-.73.53-1.22.12-.49.18-1.08.18-1.75v-.6c0-1-.1-1.83-.3-2.49-.2-.66-.53-1.15-.99-1.48s-1.07-.49-1.83-.49Z"/><path class="cls-13" d="M270.64,295.95c.6,0,1.13.14,1.57.42s.67.82.67,1.6-.22,1.27-.67,1.56c-.45.29-.97.44-1.57.44s-1.15-.15-1.59-.44c-.44-.29-.66-.81-.66-1.56s.22-1.32.66-1.6.97-.42,1.59-.42ZM272.69,301.83v14.94h-4.13v-14.94h4.13Z"/><path class="cls-13" d="M282.6,313.79c.46,0,.89-.05,1.31-.14s.84-.2,1.26-.33v3.04c-.44.18-.98.34-1.63.48s-1.35.21-2.12.21c-.89,0-1.69-.15-2.39-.44-.7-.29-1.26-.8-1.67-1.52-.41-.72-.62-1.72-.62-3v-7.2h-1.94v-1.72l2.24-1.37,1.18-3.15h2.6v3.17h4.19v3.06h-4.19v7.2c0,.57.16.99.49,1.27.33.28.76.42,1.29.42Z"/><path class="cls-13" d="M294.17,301.56c1.88,0,3.31.44,4.3,1.33.99.88,1.48,2.19,1.48,3.93v9.96h-2.87l-.79-2.02h-.11c-.42.53-.85.97-1.3,1.31-.45.35-.96.6-1.55.75-.58.15-1.3.23-2.13.23s-1.66-.17-2.35-.51c-.69-.34-1.24-.85-1.64-1.55s-.6-1.57-.6-2.63c0-1.57.57-2.75,1.7-3.53,1.13-.78,2.82-1.22,5.06-1.31l2.49-.08v-.47c0-.89-.2-1.52-.6-1.87-.4-.36-.97-.53-1.7-.53-.67,0-1.37.11-2.08.33-.71.22-1.41.48-2.11.79l-1.2-2.82c.78-.4,1.68-.72,2.7-.96,1.01-.24,2.12-.36,3.32-.36ZM294.28,309.93c-1.29.04-2.2.25-2.71.63-.51.38-.77.92-.77,1.61,0,.64.18,1.11.53,1.41.36.3.83.45,1.44.45.86,0,1.58-.26,2.18-.77.59-.51.89-1.24.89-2.19v-1.23l-1.56.08Z"/><path class="cls-13" d="M307.47,316.77h-4.13v-20.8h4.13v20.8Z"/><path class="cls-13" d="M310.43,314.86c0-.84.23-1.43.7-1.78.47-.35,1.03-.52,1.68-.52s1.19.17,1.66.52c.46.35.7.94.7,1.78s-.23,1.38-.7,1.74c-.47.36-1.02.53-1.66.53s-1.22-.18-1.68-.53c-.46-.36-.7-.93-.7-1.74Z"/><path class="cls-7" d="M157.16,153.65l-45.36,26.19v.02l34.35,19.82c6.81,3.93,15.2,3.93,22.01,0l34.33-19.81-45.34-26.18v-.04Z"/><path class="cls-9" d="M111.8,22.78h0s0,0,0,0l-34.35,19.83c-6.81,3.93-11.01,11.2-11.01,19.06v39.62l45.36-26.13V22.78Z"/><path class="cls-12" d="M202.51,22.78L168.16,2.95c-6.81-3.93-15.2-3.93-22.01,0l-34.35,19.83,45.36,26.19,45.36-26.19Z"/><rect class="cls-2" x="157.16" y="101.35" width="0" height="0" transform="translate(-10.6 183.96) rotate(-59.04)"/><rect class="cls-3" x="157.16" y="101.35" width="0" height="0" transform="translate(-10.6 183.96) rotate(-59.04)"/><polygon class="cls-11" points="111.8 75.16 111.8 75.16 157.16 101.35 157.16 101.34 157.16 48.97 111.8 22.78 111.8 22.78 111.8 75.16"/><rect class="cls-2" x="157.16" y="101.35" width="0" height="0"/><rect class="cls-1" x="157.16" y="101.35" width="0" height="0"/><rect class="cls-3" x="157.16" y="101.35" width="0" height="0"/><path class="cls-9" d="M66.44,101.3v39.64c0,7.86,4.2,15.13,11.01,19.06l34.35,19.83v-52.3l-45.36-26.24Z"/><polygon class="cls-15" points="157.16 101.35 157.15 101.35 157.15 101.35 111.8 127.53 111.8 179.83 157.16 153.65 157.16 101.35"/><polygon class="cls-5" points="111.8 127.53 157.15 101.35 111.8 75.16 111.8 75.16 66.44 101.29 66.44 101.3 111.8 127.53 111.8 127.53"/><polygon class="cls-2" points="157.16 101.35 157.15 101.35 157.15 101.35 157.16 101.35 157.16 101.35 157.16 101.35"/><polygon class="cls-3" points="157.16 101.35 157.15 101.35 157.15 101.35 157.16 101.35 157.16 101.35 157.16 101.35"/><polygon class="cls-1" points="157.16 101.35 157.15 101.35 157.15 101.35 157.16 101.35 157.16 101.35 157.16 101.35"/><rect class="cls-2" x="157.15" y="101.35" width="0" height="0" transform="translate(-29.64 92.53) rotate(-30.11)"/><rect class="cls-1" x="157.15" y="101.35" width="0" height="0" transform="translate(-29.64 92.53) rotate(-30.11)"/><rect class="cls-3" x="157.15" y="101.35" width="0" height="0" transform="translate(-29.64 92.53) rotate(-30.11)"/><rect class="cls-1" x="157.15" y="101.35" width="0" height="0" transform="translate(-29.64 92.53) rotate(-30.11)"/><path class="cls-7" d="M202.52,127.54v52.32h-.02s.02.02.02.02l34.35-19.83c6.81-3.93,11.01-11.2,11.01-19.06v-39.66h0s-45.36,26.22-45.36,26.22"/><polygon class="cls-14" points="202.52 127.54 173 110.49 157.16 101.35 157.16 101.35 157.16 153.65 157.16 153.69 202.5 179.86 202.52 179.85 202.52 127.54"/><rect class="cls-2" x="157.16" y="101.35" width="0" height="0"/><rect class="cls-3" x="157.16" y="101.35" width="0" height="0"/><rect class="cls-2" x="157.16" y="101.35" width="0" height="0"/><path class="cls-12" d="M202.52,75.19l45.36,26.12h0v-39.64c0-7.86-4.2-15.13-11.01-19.06l-34.35-19.83h0s0,0,0,0v52.38"/><polygon class="cls-4" points="157.16 101.34 157.16 101.35 157.41 101.2 202.51 75.16 202.51 22.78 202.51 22.78 157.16 48.97 157.16 101.34"/><rect class="cls-2" x="157.16" y="101.34" width="0" height="0" transform="translate(-29.63 92.38) rotate(-30.07)"/><rect class="cls-3" x="157.16" y="101.34" width="0" height="0" transform="translate(-29.63 92.38) rotate(-30.07)"/><rect class="cls-3" x="157.16" y="101.34" width="0" height="0" transform="translate(-29.63 92.38) rotate(-30.07)"/><polygon class="cls-8" points="157.41 101.2 157.16 101.35 173 110.49 202.52 127.53 247.88 101.31 202.52 75.19 157.41 101.2"/><polygon class="cls-3" points="157.16 101.35 157.41 101.2 157.16 101.35 157.16 101.35"/><polygon class="cls-2" points="157.16 101.35 157.41 101.2 157.16 101.35 157.16 101.35"/><polygon class="cls-3" points="157.16 101.35 157.41 101.2 157.16 101.35 157.16 101.35"/><rect class="cls-2" x="157.16" y="101.35" width="0" height="0" transform="translate(-3.77 196.59) rotate(-63.43)"/><rect class="cls-3" x="157.16" y="101.35" width="0" height="0" transform="translate(-3.77 196.59) rotate(-63.43)"/><rect class="cls-2" x="157.16" y="101.35" width="0" height="0" transform="translate(-3.77 196.59) rotate(-63.43)"/><rect class="cls-3" x="157.16" y="101.35" width="0" height="0" transform="translate(-3.77 196.59) rotate(-63.43)"/><path class="cls-10" d="M192.72,91.64c-.07-.13-.13-.2-.25-.32-6.29-7.07-15.23-17.09-21.66-24.23-1.99-2.12-3.98-4.25-5.84-6.42-.45-.51-.83-1.03-1.28-1.54-.38-.38-.58-.65-.58-.65h.07c-2.19-2.57-3.92-5.46-5.14-8.55l-.32-.71c0-.07-.07-.07-.13-.13-.07,0-.2-.07-.25-.07h-.08c-.13,0-.2.07-.25.07q-.07.07-.13.13l-.32.71c-1.28,3.09-3.02,5.97-5.14,8.55h.07s-.2.25-.58.65c-.45.51-.83,1.03-1.28,1.54-1.93,2.19-3.85,4.3-5.84,6.42-6.42,7.13-15.42,17.16-21.72,24.23-.07.13-.13.2-.25.32-23.79,31.68,2.04,57.51,2.04,57.51h-.07c7.65,8.86,18.5,14.32,30.14,15.17,1.03.13,2.12.2,3.27.2h.07c1.09,0,2.19-.07,3.27-.2,11.7-.83,22.49-6.29,30.14-15.17h-.07c.07,0,25.9-25.84,2.13-57.51ZM137.39,113.93l-.58.9-.07.07c-4.37,5.26-6.94,10.92-7.77,16.51-.13.71-.78,1.16-1.41,1.03-.45-.07-.78-.38-.96-.78-1.16-2.7-1.93-5.53-2.31-8.42-1.48-10.22,1.61-19.14,8.16-26.78,2.64-3.02,5.26-6.04,7.9-9.06.45-.51,1.23-.58,1.74-.13h0l.13.13c2.12,2.44,4.88,5.59,7.97,9.19.38.45.38,1.16,0,1.67-1.64,1.97-3.32,3.98-5,6.01-2.66,3.21-5.3,6.46-7.78,9.61v.06h0ZM173.88,140.41h0c-2.44,6.42-7.27,10.29-14.07,11.37-9.71,1.48-18.77-5.14-20.24-14.84,0-.13,0-.2-.07-.32-.78-5.46.9-10.29,4.43-14.39,4.11-4.82,13.18-16,13.31-16.2h0c.2.2,9.83,12.21,13.43,16.45,4.56,5.35,5.66,11.44,3.2,17.93ZM188.22,130.32h0c-.07.2-.2.45-.25.65-.25.65-.96.96-1.61.71-.38-.2-.71-.51-.78-.96-.9-5.4-3.47-10.79-7.65-15.87l-.07-.07-.38-.58-.25-.32c-3.34-4.25-21.01-24.93-28.73-33.99-.38-.45-.38-1.16,0-1.67,2.57-2.82,5.14-5.66,7.65-8.55.45-.51,1.23-.51,1.74-.07l.07.07c1.16,1.23,2.24,2.44,3.34,3.73,7,7.84,14.07,15.55,20.88,23.45,8.61,9.97,10.6,21.4,6.04,33.48Z"/><path class="cls-6" d="M41.02,253.21c0,12.45-10.07,22.52-22.46,22.52H1.04v-44.98h17.52c12.38,0,22.46,10.07,22.46,22.46ZM8.68,238.39v29.71h9.88c8.21,0,14.82-6.74,14.82-14.89s-6.61-14.82-14.82-14.82h-9.88Z"/><path class="cls-6" d="M65.85,242.43v7.64h-4.68c-2.82,0-5.9,1.73-5.9,5.13v20.53h-7.63v-33.3h7.63v3.4c1.48-2.12,3.4-3.4,5.9-3.4h4.68Z"/><path class="cls-6" d="M101.78,275.73h-7.64v-3.34c-2.5,3.02-6.67,4.11-9.75,4.11-8.34,0-14.44-5.77-14.44-13.47v-19.76h7.63v17.45c0,6.87,3.79,8.98,7.76,8.98,5.13,0,8.79-3.91,8.79-9.82v-16.62h7.64v32.47Z"/><path class="cls-6" d="M143.87,259.5c0,9.37-7.51,17-16.62,17-4.04,0-7.57-1.41-10.39-3.72v18.22h-7.64v-47.8h7.64v2.95c2.82-2.31,6.35-3.72,10.39-3.72,9.11,0,16.62,7.64,16.62,17.07ZM136.24,259.5c0-5.26-4.04-9.43-8.98-9.43s-9.05,4.17-9.05,9.43,4.04,9.37,9.05,9.37,8.98-4.23,8.98-9.37Z"/><path class="cls-6" d="M174.42,243.2h7.63v32.53h-7.63v-2.95c-2.82,2.31-6.35,3.72-10.39,3.72-9.11,0-16.62-7.64-16.62-17.07s7.51-17,16.62-17c4.04,0,7.57,1.41,10.39,3.72v-2.95ZM173.07,259.43c0-5.13-4.04-9.37-9.05-9.37s-8.98,4.23-8.98,9.37,4.04,9.43,8.98,9.43,9.05-4.17,9.05-9.43Z"/><path class="cls-6" d="M188.72,227.99h7.63v47.74h-7.63v-47.74Z"/><path class="cls-6" d="M241.21,269.44c-4.11,4.36-9.82,6.99-16.23,6.99-12.58,0-22.65-10.33-22.65-23.16s10.07-23.23,22.65-23.23c6.42,0,12.13,2.63,16.23,6.99l-5.39,5.39c-2.76-3.02-6.54-4.75-10.84-4.75-8.28,0-15.01,6.93-15.01,15.59s6.74,15.59,15.01,15.59c4.3,0,8.08-1.8,10.84-4.81l5.39,5.39Z"/><path class="cls-6" d="M277.4,259.5c0,9.37-7.51,17-16.62,17s-16.68-7.64-16.68-17,7.51-17.07,16.62-17.07,16.68,7.64,16.68,17.07ZM251.73,259.5c0,5.13,4.04,9.37,8.98,9.37s9.05-4.23,9.05-9.37-4.04-9.43-9.05-9.43-8.98,4.17-8.98,9.43Z"/><path class="cls-6" d="M313.33,255.9v19.83h-7.64v-16.62c0-6.29-3.34-9.05-7.83-9.05-5.26,0-8.73,3.14-8.73,9.05v16.62h-7.64v-32.47h7.64v3.34c2.37-3.02,6.74-4.17,9.75-4.17,8.34,0,14.44,5.77,14.44,13.47Z"/></g></svg>